<svg xmlns="http://www.w3.org/2000/svg" xmlns:xlink="http://www.w3.org/1999/xlink" width="101.038" height="57.299" viewBox="0 0 101.038 57.299">
  <defs>
    <clipPath id="clip-path">
      <rect id="長方形_196" data-name="長方形 196" width="101.038" height="57.299" fill="#fff"/>
    </clipPath>
  </defs>
  <g id="logo-mark" transform="translate(0 0)">
    <g id="グループ_489" data-name="グループ 489" transform="translate(0 0)" clip-path="url(#clip-path)">
      <path id="パス_77" data-name="パス 77" d="M56.12,46.908a2.117,2.117,0,1,0,2.117,2.116,2.116,2.116,0,0,0-2.117-2.116" transform="translate(-22.565 -19.6)" fill="#fff"/>
      <path id="パス_78" data-name="パス 78" d="M79.859,35.755a2.515,2.515,0,0,0-.628-.074,8.748,8.748,0,0,0-2.4.6l-1.133.426a.215.215,0,0,1-.284-.277l.156-.688-4.6,1.146-1.922,8.592a1.657,1.657,0,0,1-.388.789,1.8,1.8,0,0,1-.818.468.7.7,0,0,1-.77-.16.993.993,0,0,1-.16-.845l1.861-8.3-4,1-1.81,8.057a1.887,1.887,0,0,1-.777.9,1.189,1.189,0,0,1-.58.265.7.7,0,0,1-.695-.264,1.068,1.068,0,0,1-.063-.793l1.706-7.608-4.14,1.032-1.664,6.857a3.888,3.888,0,0,1-1.327,1.749.965.965,0,0,1-.99.212c-.167-.1-.2-.327-.159-.656s.135-.765.225-1.3l.7-3.12.7-3.12-3.823.952-.306,1.365a3.92,3.92,0,0,0-1.356-1.036,2.714,2.714,0,0,0-1.719-.158,5.9,5.9,0,0,0-3.65,2.8,10.515,10.515,0,0,0-1.607,4.52.131.131,0,0,1-.13.118h0l-.049-.013a.13.13,0,0,1-.073-.08h0v.012a2.756,2.756,0,0,0-.626-1.322,1.275,1.275,0,0,0-1.014-.479,1.083,1.083,0,0,0-.795.4,1.508,1.508,0,0,0-.328,1.03,1.456,1.456,0,0,0,.441,1.048,3.154,3.154,0,0,0,1.088.673,5.423,5.423,0,0,1-.837,1.937,1.815,1.815,0,0,1-1.317.915.615.615,0,0,1-.608-.41,2.69,2.69,0,0,1-.141-1,14.826,14.826,0,0,1,.158-1.971c.1-.729.246-1.515.424-2.315a11.917,11.917,0,0,0,3.251-2.5,7.212,7.212,0,0,0,1.71-3.988,4.851,4.851,0,0,0-.108-1.813,2.1,2.1,0,0,0-.646-1.085l.008,0h0a.1.1,0,0,1,.056-.177h0a121.552,121.552,0,0,0,17.838-.6A59.955,59.955,0,0,0,80.22,32.405h0c.147-.087.232-.2.2-.289s-.2-.108-.373-.054c-16.33,5.335-30.092,4.732-41.33,3.958-11.311-.78-20-1.57-25.989,3.836a11.986,11.986,0,0,0-4.1,8.206,31.4,31.4,0,0,0,.7,7.844,12.778,12.778,0,0,1,.2,3.922c-.175,1.026-.654,1.7-1.612,1.817-1.751.211-2.4-1.909-2.6-4.083a25.532,25.532,0,0,1,.024-4.4L0,54.241A16.816,16.816,0,0,0,1.32,58.9c1.07,2.329,2.962,4.658,6.247,4.658A5.6,5.6,0,0,0,12.45,61.02a9.913,9.913,0,0,0,1.458-5.529l2.852-1.429-1.509,3.824-1.508,3.824,5.22-1.3L21.82,52.63A2.838,2.838,0,0,1,23,50.954c.385-.2,1.206-.267.9.846-.08.293-.242.827-.73,2.292a28.756,28.756,0,0,0-1.13,3.477,1.714,1.714,0,0,0,.349,1.31,1.551,1.551,0,0,0,1.563.311,6.719,6.719,0,0,0,2.028-1.34c.895-.746,1.957-1.732,3.027-2.78a2.853,2.853,0,0,0,.272,2.014c.329.437.939.6,1.951.36a5.478,5.478,0,0,0,2.425-1.6,17.722,17.722,0,0,0,1.975-2.48,3.421,3.421,0,0,0,1.427,2.273A2.514,2.514,0,0,0,39,55.905a5.032,5.032,0,0,0,3.021-2.1,8.578,8.578,0,0,0,1.255-2.961l.237.067a3.718,3.718,0,0,0,1.754,2.316,3.287,3.287,0,0,0,2.465.428,3.863,3.863,0,0,0,1.324-.638,8.371,8.371,0,0,0,1.335-1.234,1.361,1.361,0,0,0,.508.673,1.1,1.1,0,0,0,.866.118,6.23,6.23,0,0,0,1.9-1.069,23,23,0,0,0,2.6-2.284,1.86,1.86,0,0,0,.775,1.383,1.682,1.682,0,0,0,1.377.31,7.887,7.887,0,0,0,2.061-.908A11.631,11.631,0,0,0,62.6,48.346a1.312,1.312,0,0,0,.356.987,1.1,1.1,0,0,0,1.077.189l4.511-1.3,4.511-1.3,1.832-8.158a.613.613,0,0,1,.165-.285.6.6,0,0,1,.285-.167l.516-.119a.322.322,0,0,1,.234.016.124.124,0,0,1,.05.156l-.034.129a3.943,3.943,0,0,0,.238,2.658,2.646,2.646,0,0,0,4.088,1.019,4.075,4.075,0,0,0,1.219-4.889,2.748,2.748,0,0,0-1.791-1.522M42.838,40.311c.459,0,.488.478.488,1.019,0,1.663-1.572,3.31-3.254,4.508.809-2.917,1.933-5.526,2.766-5.526M23.48,48.062c.059-.161.1-.293.139-.388.872-2.538,2.077-5.324,3.034-5.324.625,0,.642.7.251,1.664a12.185,12.185,0,0,1-3.423,4.048m11.948,3.352c0,.18,0,.353.012.522-.679.714-1.438,1.393-1.718,1.31-.416-.126-.167-.916-.167-.916L34.9,46.384l-4,.995s-.874,3.244-1.54,5.906c-.012.054-.026.107-.04.16-.619.735-1.211,1.26-1.664,1.045-.607-.283,1.621-3.907.955-5.405-.445-1-1.976-.936-3.117-.5-.245.093-.573.229-.962.4,2.13-1.848,3.873-4.086,3.873-6.656,0-1.962-.873-2.64-2.121-2.64-2.745,0-5.447,4.117-6.9,7.735L17.587,51.96c-.767.422-1.55.836-2.285,1.2-.562.26-1.064.489-1.48.682-.38-5.187-1.135-9.273,3.06-12.661,4.934-3.987,13.992-3.5,24.761-3.178a.1.1,0,0,1,.1.08.1.1,0,0,1-.056.106h.01c-3.052,1.487-6.267,8.418-6.267,13.219m15.509-5.029c-.067.711-.223,1.288-.389,2.183-.409,1.831-1.257,2.7-1.94,2.846-.967.21-1.206-1.5-.873-3.532s1.206-3.787,2.038-3.994,1.331.745,1.164,2.5" transform="translate(0 -13.384)" fill="#fff"/>
      <path id="パス_79" data-name="パス 79" d="M160.344,33.225c-.09-.063-.265.031-.389.21-1.221,1.494-4.506,4.388-5.339,4.295-.293-.033-.782-.131-.5-1.231l1.868-6-4.352,1.085s-.1.433-.247,1.1a5.323,5.323,0,0,0-3.353-.841c-4.412.349-5.9,4.7-5.98,8a3.616,3.616,0,0,0,4.508,3.624,6.508,6.508,0,0,0,2.951-1.943,1.152,1.152,0,0,0,1.486.76c2.1-.566,6.5-3.821,9.278-8.622.125-.179.154-.374.065-.438m-9.867,3.048c-.076.445-.221,1.031-.339,1.565-.513,2.229-1.606,3.347-2.613,3.541-1.134.219-1.327-1.583-.786-3.871.537-2.268,1.933-4.439,3.108-4.439.971,0,.979,1.175.63,3.2" transform="translate(-59.357 -12.742)" fill="#fff"/>
      <path id="パス_80" data-name="パス 80" d="M45.132,19.94A23.835,23.835,0,0,1,89.1,18.963l4.736-1.18A28.657,28.657,0,0,0,40.02,19.94Z" transform="translate(-16.722 0)" fill="#fff"/>
      <path id="パス_81" data-name="パス 81" d="M93.942,57.313A23.829,23.829,0,0,1,53.316,68.371l-5.222,1.3A28.651,28.651,0,0,0,99.067,56.035Z" transform="translate(-20.096 -23.414)" fill="#fff"/>
    </g>
  </g>
</svg>
